<?xml version="1.0" encoding="utf-8"?>
<!-- Generator: Adobe Illustrator 26.0.3, SVG Export Plug-In . SVG Version: 6.00 Build 0)  -->
<svg version="1.1" id="Layer_2_00000000187642521068287240000004580224550671491220_"
	 xmlns="http://www.w3.org/2000/svg" xmlns:xlink="http://www.w3.org/1999/xlink" x="0px" y="0px" viewBox="0 0 235 90"
	 style="enable-background:new 0 0 235 90;" xml:space="preserve">
<style type="text/css">
	.st0{fill:#EB0045;}
</style>
<g id="Logo_x5F_UCLL_x5F_ENG_x5F_pantone_00000068679173650398174810000002133221663961993111_">
	<g>
		<g>
			<g>
				<g>
					<g>
						<path class="st0" d="M105.1,30.3V8.8h7.2V28c0,7,1.5,12.6,9,12.6c7.5,0,9-5.6,9-12.6V8.8h7.2v21.4c0,10.2-5.2,16.8-16.2,16.8
							C110.3,47.1,105.1,40.5,105.1,30.3"/>
					</g>
				</g>
				<g>
					<g>
						<path class="st0" d="M143.3,27.6c0-11.8,8.1-19.5,19.2-19.5c4.1,0,8.2,0.8,11.1,2.2l-0.8,6.5c-3.2-1.2-6.2-2.2-10.3-2.2
							c-7.6,0-11.4,5.4-11.4,12.9s3.8,12.9,11.4,12.9c4.1,0,7.1-0.9,10.3-2.2l0.8,6.5c-2.9,1.3-7,2.2-11.1,2.2
							C151.4,47.1,143.3,39.4,143.3,27.6"/>
					</g>
				</g>
				<g>
					<g>
						<polygon class="st0" points="179.4,47.2 179.4,8.2 187.1,8.2 187.1,40.3 204.3,40.3 204.3,47.2 						"/>
					</g>
				</g>
				<g>
					<g>
						<polygon class="st0" points="210.1,8.2 210.1,47.3 235,47.3 235,40.4 217.8,40.4 217.8,8.2 						"/>
					</g>
				</g>
				<g>
					<g>
						<path class="st0" d="M90,44.6l-27.3,0.2c0,0.1,0,0.1,0,0.2c0,0.2,0,0.4,0,0.6c0,0,0,0.1,0,0.1c0,0.2,0,0.4,0,0.5
							c0,0,0,0.1,0,0.1l27.2,1.9h0.1C90.1,47.1,90.2,45.9,90,44.6L90,44.6L90,44.6z"/>
					</g>
				</g>
				<g>
					<g>
						<path class="st0" d="M29.9,87.4L29.9,87.4c1.3,0.5,2.7,0.9,4.1,1.3l0,0L38.7,70c-0.7-0.6-1.3-1.2-2-1.8L29.9,87.4z"/>
					</g>
				</g>
				<g>
					<g>
						<path class="st0" d="M10.8,74.2C10.8,74.2,10.8,74.2,10.8,74.2c0.1,0.1,0.1,0.2,0.2,0.3c0.8,0.9,1.6,1.8,2.4,2.6
							c0.1,0.1,0.2,0.2,0.3,0.3c0,0,0,0,0,0l16.9-17.5c-0.3-0.6-0.6-1.2-0.9-1.9L10.8,74.2z"/>
					</g>
				</g>
				<g>
					<g>
						<path class="st0" d="M37.5,89.4L37.5,89.4C37.6,89.4,37.6,89.4,37.5,89.4c0.1,0,0.2,0,0.3,0c1.2,0.2,2.3,0.3,3.5,0.4
							c0.1,0,0.2,0,0.4,0h0l1-13.6l-1,13.6l1.2-17c-0.8-0.5-1.7-1-2.5-1.6L37.5,89.4z"/>
					</g>
				</g>
				<g>
					<g>
						<path class="st0" d="M22.8,84.1L22.8,84.1c0.1,0.1,0.2,0.1,0.3,0.2c0,0,0,0,0,0c1.1,0.6,2.3,1.2,3.5,1.8l0,0l8.7-19.4
							c-0.5-0.6-1.1-1.2-1.6-1.9L22.8,84.1z"/>
					</g>
				</g>
				<g>
					<g>
						<path class="st0" d="M16.3,79.7C16.3,79.7,16.4,79.7,16.3,79.7c0.1,0.1,0.2,0.2,0.3,0.2c0.9,0.7,1.9,1.4,2.8,2.1l0,0
							c0.1,0.1,0.2,0.1,0.3,0.2h0l12.9-19c-0.4-0.6-0.8-1.2-1.2-1.9L16.3,79.7z"/>
					</g>
				</g>
				<g>
					<g>
						<path class="st0" d="M0.7,53.1L0.7,53.1c0,0.1,0,0.2,0.1,0.4v0c0.2,1.3,0.6,2.6,0.9,3.8L27.5,50c-0.1-0.6-0.1-1.1-0.2-1.7
							L0.7,53.1z"/>
					</g>
				</g>
				<g>
					<g>
						<path class="st0" d="M6.2,67.8L6.2,67.8c0,0.1,0.1,0.2,0.1,0.2l0,0c0.6,1,1.2,2,1.9,3l0,0c0.1,0.1,0.1,0.2,0.2,0.3
							c0,0,0,0,0.1,0.1l20.6-14.9c-0.2-0.6-0.4-1.2-0.6-1.8L6.2,67.8z"/>
					</g>
				</g>
				<g>
					<g>
						<path class="st0" d="M27.8,51.4L2.9,60.7l0,0c0.5,1.3,1.1,2.7,1.7,4l0,0l23.6-11.5C28,52.6,27.9,52,27.8,51.4"/>
					</g>
				</g>
				<g>
					<g>
						<path class="st0" d="M79.7,73.7C79.7,73.7,79.7,73.7,79.7,73.7c0.1-0.1,0.2-0.2,0.2-0.3c0.7-0.9,1.4-1.9,2.2-2.8
							c0.1-0.1,0.1-0.2,0.2-0.3c0,0,0,0,0,0L80,68.7c-1,0.9-2.1,1.8-3.2,2.6L79.7,73.7z"/>
					</g>
				</g>
				<g>
					<g>
						<path class="st0" d="M84.2,67.3L84.2,67.3c0.1-0.1,0.1-0.2,0.2-0.4c0,0,0,0,0,0c0.6-1.1,1.2-2.3,1.8-3.5L85,62.9
							c-0.8,1.2-1.6,2.3-2.6,3.4L84.2,67.3z"/>
					</g>
				</g>
				<g>
					<g>
						<path class="st0" d="M27.3,45.3c0-0.1,0-0.1,0-0.2l0,0L0,45.3c0,0.1,0,0.2,0,0.4c0,1.2,0.1,2.4,0.2,3.5l0,0c0,0.1,0,0.2,0,0.4
							v0l27-2.8c0-0.4,0-0.8,0-1.2C27.3,45.6,27.3,45.5,27.3,45.3"/>
					</g>
				</g>
				<g>
					<g>
						<path class="st0" d="M74.2,79.3C74.2,79.3,74.2,79.2,74.2,79.3c0.1-0.1,0.2-0.2,0.3-0.2c0.9-0.8,1.8-1.6,2.6-2.4
							c0.1-0.1,0.1-0.1,0.2-0.2c0,0,0,0,0.1-0.1L74,73c-1.2,0.7-2.4,1.2-3.6,1.7L74.2,79.3z"/>
					</g>
				</g>
				<g>
					<g>
						<path class="st0" d="M58.7,77.1c-0.6,0-1.2,0-1.7,0l3.8,10.2l0,0c1.3-0.5,2.7-1.1,4-1.7l0,0l-4.1-8.5
							C59.9,77.1,59.3,77.1,58.7,77.1"/>
					</g>
				</g>
				<g>
					<g>
						<path class="st0" d="M45.3,90c0.1,0,0.3,0,0.4,0c1.2,0,2.4-0.1,3.5-0.2c0.1,0,0.2,0,0.4,0h0l-1.5-14.5c-1-0.4-2-0.8-2.9-1.2
							L45.3,90z"/>
					</g>
				</g>
				<g>
					<g>
						<path class="st0" d="M50.7,76.1l2.4,13.2c0.1,0,0.2,0,0.3-0.1c0,0,0,0,0,0c1.3-0.2,2.6-0.5,3.8-0.9l0,0l-3.3-11.5
							C53,76.6,51.8,76.4,50.7,76.1"/>
					</g>
				</g>
				<g>
					<g>
						<path class="st0" d="M67.8,83.8L67.8,83.8c0.1,0,0.2-0.1,0.3-0.1c0,0,0,0,0,0c1-0.6,2-1.3,3-1.9l0,0c0.1-0.1,0.2-0.1,0.2-0.2
							c0,0,0,0,0.1,0l-4.1-5.6c-1.2,0.4-2.5,0.6-3.7,0.8L67.8,83.8z"/>
					</g>
				</g>
				<g>
					<g>
						<path class="st0" d="M5.9,22.8L5.9,22.8c-0.1,0.1-0.1,0.2-0.2,0.3c0,0,0,0,0,0c-0.7,1.1-1.2,2.3-1.8,3.5l0,0l24.4,10.9
							c0.1-0.6,0.3-1.2,0.5-1.7L5.9,22.8z"/>
					</g>
				</g>
				<g>
					<g>
						<path class="st0" d="M75.4,19.1l3.9-3.3l0,0l0,0c-0.1-0.1-0.1-0.1-0.2-0.2c-0.8-0.9-1.6-1.8-2.4-2.6c-0.1-0.1-0.2-0.2-0.2-0.2
							c0,0,0,0-0.1,0l0,0l-4.4,4.6C73.1,17.8,74.2,18.4,75.4,19.1"/>
					</g>
				</g>
				<g>
					<g>
						<path class="st0" d="M83.8,22.2L83.8,22.2c0-0.1-0.1-0.2-0.1-0.2l0,0l0,0c-0.6-1-1.3-2-1.9-3l0,0c-0.1-0.1-0.1-0.2-0.2-0.3
							c0,0,0,0,0-0.1l0,0L78.1,21c1.1,0.8,2.1,1.8,3,2.7L83.8,22.2z"/>
					</g>
				</g>
				<g>
					<g>
						<path class="st0" d="M67.2,5.8L67.2,5.8c-0.1-0.1-0.2-0.1-0.3-0.2c0,0,0,0,0,0c-1.1-0.6-2.3-1.2-3.5-1.8l0,0l-4.7,10.5
							c1.2,0,2.4,0.1,3.6,0.2L67.2,5.8z"/>
					</g>
				</g>
				<g>
					<g>
						<path class="st0" d="M87.2,29.3L87.2,29.3c-0.5-1.3-1.1-2.7-1.7-4l0,0l-2.1,1.1c0.8,1.1,1.7,2.3,2.4,3.5L87.2,29.3z"/>
					</g>
				</g>
				<g>
					<g>
						<path class="st0" d="M89.3,36.8c0-0.1,0-0.2-0.1-0.3v0c-0.2-1.3-0.6-2.6-0.9-3.8l0,0l-1,0.3c0.6,1.3,1.1,2.6,1.5,4L89.3,36.8z
							"/>
					</g>
				</g>
				<g>
					<g>
						<path class="st0" d="M60.1,2.6L60.1,2.6c-1.3-0.5-2.7-0.9-4.2-1.3l0,0l-3.4,13.6c1.1-0.2,2.2-0.4,3.3-0.5L60.1,2.6z"/>
					</g>
				</g>
				<g>
					<g>
						<path class="st0" d="M73.7,10.3L73.7,10.3c-0.1-0.1-0.2-0.2-0.3-0.2c-0.9-0.7-1.9-1.4-2.8-2.2l0,0c-0.1-0.1-0.2-0.1-0.3-0.2
							c0,0,0,0,0,0l-5,7.3c1.2,0.3,2.5,0.6,3.6,1L73.7,10.3z"/>
					</g>
				</g>
				<g>
					<g>
						<path class="st0" d="M22.2,6.2c-0.1,0-0.2,0.1-0.2,0.1c0,0,0,0,0,0l0,0c-1,0.6-2,1.3-3,1.9l0,0c-0.1,0.1-0.2,0.1-0.3,0.2
							c0,0-0.1,0-0.1,0.1l14.1,19.5c0.4-0.6,0.8-1.2,1.3-1.8L22.2,6.2z"/>
					</g>
				</g>
				<g>
					<g>
						<path class="st0" d="M10.3,16.3L10.3,16.3c-0.1,0.1-0.2,0.2-0.2,0.3c-0.7,0.9-1.4,1.9-2.1,2.8l0,0c-0.1,0.1-0.1,0.2-0.2,0.3
							c0,0,0,0,0,0l0,0l21.6,14.6c0.2-0.6,0.5-1.2,0.7-1.8L10.3,16.3z"/>
					</g>
				</g>
				<g>
					<g>
						<path class="st0" d="M31.8,29.4L15.9,10.7c0,0,0,0,0,0c-0.1,0.1-0.1,0.1-0.2,0.2c-0.9,0.8-1.8,1.6-2.6,2.4
							c-0.1,0.1-0.1,0.1-0.2,0.2c0,0,0,0-0.1,0l0,0l18.1,17.5C31.1,30.6,31.4,30,31.8,29.4"/>
					</g>
				</g>
				<g>
					<g>
						<path class="st0" d="M36.9,0.7L36.9,0.7c-0.1,0-0.2,0-0.4,0.1c0,0,0,0,0,0c-1.3,0.2-2.6,0.6-3.8,0.9l0,0l5.7,20
							c0.7-0.6,1.3-1.1,2.1-1.6L36.9,0.7z"/>
					</g>
				</g>
				<g>
					<g>
						<path class="st0" d="M44.7,0l-4.3,0.2l1.9,18.7c0.8-0.5,1.7-1,2.5-1.4L44.7,0z"/>
					</g>
				</g>
				<g>
					<g>
						<path class="st0" d="M29.3,2.8L29.3,2.8c-1.3,0.5-2.7,1.1-4,1.7l0,0l9.9,20.3c0.5-0.6,1.1-1.2,1.7-1.7L29.3,2.8z"/>
					</g>
				</g>
				<g>
					<g>
						<path class="st0" d="M52.5,0.6L52.5,0.6c0,0-0.1,0-0.1,0c-0.1,0-0.1,0-0.2,0c-1.2-0.2-2.3-0.3-3.5-0.4l-0.5,0L47,16.5
							c1-0.4,1.9-0.7,2.9-1L52.5,0.6z"/>
					</g>
				</g>
				<g>
					<g>
						<path class="st0" d="M59.8,55L80,68.7c0.8-0.8,1.6-1.6,2.4-2.5L60.5,53.8C60.2,54.2,60,54.6,59.8,55"/>
					</g>
				</g>
				<g>
					<g>
						<path class="st0" d="M30.3,35l-1-0.6c-0.2,0.5-0.4,0.9-0.5,1.4l0.7,0.4C29.8,35.9,30,35.4,30.3,35"/>
					</g>
				</g>
				<g>
					<g>
						<path class="st0" d="M28.8,37.8l-0.5-0.2c-0.1,0.5-0.2,0.9-0.3,1.4l0.3,0.1C28.4,38.6,28.6,38.2,28.8,37.8"/>
					</g>
				</g>
				<g>
					<g>
						<path class="st0" d="M87.4,60.1L87.4,60.1c0.5-1.3,0.9-2.7,1.3-4.1l-0.3-0.1c-0.5,1.4-1,2.7-1.7,3.9L87.4,60.1z"/>
					</g>
				</g>
				<g>
					<g>
						<path class="st0" d="M89.3,52.5L62.6,48c-0.1,0.5-0.2,0.9-0.3,1.4l26.1,6.6c0,0,0.6-1.3,1.1-3.4L89.3,52.5z"/>
					</g>
				</g>
				<g>
					<g>
						<path class="st0" d="M31.3,33.7c0.3-0.4,0.6-0.7,1-1.1l-1.5-1.4c-0.2,0.5-0.5,1-0.7,1.4L31.3,33.7z"/>
					</g>
				</g>
				<g>
					<g>
						<path class="st0" d="M57.8,57.4L74,73.1c1-0.5,1.9-1.1,2.8-1.8l-18.1-15C58.5,56.7,58.1,57,57.8,57.4"/>
					</g>
				</g>
				<g>
					<g>
						<path class="st0" d="M61.3,52.3L61.3,52.3L85,62.9c0.6-1,1.2-2,1.7-3L61.8,51C61.6,51.4,61.4,51.9,61.3,52.3"/>
					</g>
				</g>
				<g>
					<g>
						<path class="st0" d="M33.6,31.4c0.4-0.3,0.7-0.6,1.1-0.8L32.7,28c-0.3,0.5-0.6,1-1,1.4L33.6,31.4
							C33.5,31.4,33.6,31.4,33.6,31.4"/>
					</g>
				</g>
				<g>
					<g>
						<path class="st0" d="M37.3,29l-2-4.2c-0.4,0.5-0.8,1-1.2,1.4l2,3.4C36.5,29.4,36.8,29.2,37.3,29"/>
					</g>
				</g>
				<g>
					<g>
						<path class="st0" d="M55.5,59.4l11.9,16.5c1-0.3,2-0.6,3-1L56.5,58.6C56.2,58.8,55.8,59.1,55.5,59.4"/>
					</g>
				</g>
				<g>
					<g>
						<path class="st0" d="M32.7,57.8l-2,2.1c0.3,0.5,0.6,1,0.8,1.6l2.3-2.7C33.3,58.4,33,58.1,32.7,57.8"/>
					</g>
				</g>
				<g>
					<g>
						<path class="st0" d="M45,62.8c-0.4,0-0.8,0-1.3,0l-0.5,6.9L43,72.9c0.7,0.4,1.4,0.8,2.2,1.2l-0.1-11.3
							C45.1,62.8,45.1,62.8,45,62.8"/>
					</g>
				</g>
				<g>
					<g>
						<path class="st0" d="M30.6,55.4l-1.5,1.1c0.2,0.5,0.4,1,0.6,1.5l1.7-1.5C31.2,56.2,30.9,55.8,30.6,55.4"/>
					</g>
				</g>
				<g>
					<g>
						<path class="st0" d="M37.8,61.2l-2.5,5.5c0.5,0.5,1,1,1.4,1.5l2.3-6.5C38.6,61.6,38.2,61.4,37.8,61.2"/>
					</g>
				</g>
				<g>
					<g>
						<path class="st0" d="M35.1,59.7l-2.4,3.6c0.4,0.5,0.7,1,1.1,1.6l2.5-4.4C35.9,60.2,35.5,60,35.1,59.7"/>
					</g>
				</g>
				<g>
					<g>
						<path class="st0" d="M46.9,62.7l1.3,12.6c0.8,0.3,1.7,0.6,2.6,0.8l-2.5-13.6C47.8,62.6,47.3,62.6,46.9,62.7"/>
					</g>
				</g>
				<g>
					<g>
						<path class="st0" d="M27.4,46.9L27.4,46.9c-0.1,0.5,0,1,0,1.4l0.2,0C27.5,47.8,27.4,47.3,27.4,46.9"/>
					</g>
				</g>
				<g>
					<g>
						<path class="st0" d="M54,60.4c-0.4,0.2-0.8,0.5-1.2,0.7l7.8,16c1-0.1,2-0.2,3-0.4L54,60.4z"/>
					</g>
				</g>
				<g>
					<g>
						<path class="st0" d="M40.7,62.3L38.7,70c0.6,0.5,1.2,1,1.8,1.4l1.5-8.8C41.6,62.4,41.1,62.4,40.7,62.3"/>
					</g>
				</g>
				<g>
					<g>
						<path class="st0" d="M27.9,49.9L27.5,50c0.1,0.5,0.1,1,0.2,1.4l0.6-0.2C28.2,50.8,28.1,50.3,27.9,49.9"/>
					</g>
				</g>
				<g>
					<g>
						<path class="st0" d="M29,52.8l-0.9,0.4c0.1,0.5,0.2,1,0.4,1.5l1.1-0.7C29.5,53.6,29.2,53.2,29,52.8"/>
					</g>
				</g>
				<g>
					<g>
						<path class="st0" d="M49.9,62.1L54,76.8c1,0.1,1.9,0.2,2.9,0.3l-5.7-15.4C50.8,61.8,50.3,62,49.9,62.1"/>
					</g>
				</g>
				<g>
					<g>
						<path class="st0" d="M40.2,27.9l-1.8-6.2c-0.5,0.5-1,0.9-1.5,1.4l2,5.3C39.3,28.2,39.7,28.1,40.2,27.9"/>
					</g>
				</g>
				<g>
					<g>
						<path class="st0" d="M41.8,27.5c0.2,0,0.5-0.1,0.7-0.1s0.5-0.1,0.7-0.1l-0.8-8.4c-0.6,0.4-1.3,0.8-1.9,1.2L41.8,27.5
							L41.8,27.5z"/>
					</g>
				</g>
				<g>
					<g>
						<path class="st0" d="M53.8,29.5c0.2,0.1,0.4,0.2,0.6,0.3c0.2,0.1,0.4,0.2,0.6,0.4c0,0,0,0,0.1,0L65.3,15c-1-0.2-2-0.4-3-0.5
							L53.8,29.5C53.8,29.5,53.8,29.5,53.8,29.5"/>
					</g>
				</g>
				<g>
					<g>
						<path class="st0" d="M55,30.3L55,30.3L55,30.3L55,30.3"/>
					</g>
				</g>
				<g>
					<g>
						<path class="st0" d="M56.3,31.3c0,0,0.1,0.1,0.1,0.1c0.2,0.1,0.3,0.3,0.5,0.4c0,0,0.1,0.1,0.1,0.1c0.1,0.1,0.2,0.2,0.3,0.3
							l14.5-15c-1-0.5-1.9-0.8-3-1.2L56.3,31.3z"/>
					</g>
				</g>
				<g>
					<g>
						<path class="st0" d="M58.7,33.6c0.3,0.3,0.5,0.7,0.8,1l0,0L78.1,21c-0.9-0.7-1.8-1.3-2.7-1.9L58.6,33.5
							C58.6,33.5,58.6,33.6,58.7,33.6"/>
					</g>
				</g>
				<g>
					<g>
						<path class="st0" d="M60.4,36c0.2,0.4,0.5,0.8,0.7,1.2l22.4-10.9c-0.7-0.9-1.4-1.8-2.3-2.6L60.4,36L60.4,36"/>
					</g>
				</g>
				<g>
					<g>
						<path class="st0" d="M62.1,40.1l25.2-7.2c-0.5-1.1-1-2.1-1.6-3.1l-24,9C61.8,39.2,62,39.7,62.1,40.1"/>
					</g>
				</g>
				<g>
					<g>
						<path class="st0" d="M45,27.2L45,27.2c0.1,0,0.1,0,0.1,0c0.2,0,0.5,0,0.7,0c0.1,0,0.2,0,0.3,0s0.1,0,0.2,0l0.7-10.8
							c-0.8,0.3-1.5,0.6-2.3,1l0.1,9.7C44.9,27.2,44.9,27.2,45,27.2"/>
					</g>
				</g>
				<g>
					<g>
						<path class="st0" d="M48,27.5L48,27.5c0.5,0.1,0.9,0.2,1.4,0.3l3.2-12.9c-0.9,0.2-1.7,0.4-2.6,0.6L48,27.5z"/>
					</g>
				</g>
				<g>
					<g>
						<path class="st0" d="M51,28.3c0.4,0.1,0.8,0.3,1.3,0.5l0,0l6.5-14.5h-0.1c-1,0-1.9,0-2.8,0.1L51,28.3z"/>
					</g>
				</g>
				<g>
					<path class="st0" d="M62.7,43.1l26.9-2.8c-0.2-1.2-0.5-2.3-0.8-3.4l-26.3,4.8C62.6,42.2,62.6,42.7,62.7,43.1"/>
				</g>
				<g>
					<path class="st0" d="M27.3,43.7L27.3,43.7L27.3,43.7L27.3,43.7L27.3,43.7c0-0.6,0.1-1.2,0.1-1.7h0c0.1-0.5,0.2-0.9,0.3-1.3
						l-0.1,0c0,0,0.3-1.6,0.3-1.7l0,0l0,0L2.6,30l0,0c-0.5,1.3-0.9,2.7-1.2,4.2l0,0l26.3,6.6c-0.1,0.5-0.1,1-0.2,1.4L0.6,37.6
						c0,0,0,0.1,0,0.1c0,0.1,0,0.1,0,0.2c-0.2,1.2-0.4,2.3-0.4,3.5c0,0.1,0,0.2,0,0.4v0.1L27.3,43.7L27.3,43.7z"/>
				</g>
				<g>
					<path class="st0" d="M114.5,56.6v5.8c0,1.4-0.4,2.5-1.1,3.2s-1.7,1.1-3,1.1c-1.3,0-2.3-0.4-3-1.1s-1.1-1.8-1.1-3.2v-5.8h1.2
						v5.8c0,2.1,1,3.2,2.9,3.2c1.9,0,2.9-1.1,2.9-3.2v-5.8H114.5z"/>
				</g>
				<g>
					<path class="st0" d="M124.9,56.6v9.9h-1.1l-4.4-5.9c-0.2-0.3-0.4-0.6-0.6-0.8c-0.2-0.2-0.4-0.5-0.5-0.7
						c-0.1-0.2-0.2-0.3-0.3-0.4l-0.1-0.2l0,0v0.2v0.6c0,0.2,0,0.6,0,0.9v1.1v5.2h-1.2v-9.9h1.1l4.4,5.9c0.2,0.2,0.4,0.5,0.5,0.7
						s0.3,0.5,0.5,0.6c0.1,0.2,0.2,0.4,0.4,0.5l0.1,0.2l0,0v-0.2v-0.6c0-0.2,0-0.6,0-0.9v-1v-5.2L124.9,56.6L124.9,56.6z"/>
				</g>
				<g>
					<rect x="127.4" y="56.6" class="st0" width="1.2" height="9.9"/>
				</g>
				<g>
					<path class="st0" d="M139.5,56.6l-4.2,9.9h-1.2l-4.2-9.8h1.3l3,7.1c0.1,0.2,0.1,0.4,0.2,0.6c0.1,0.2,0.1,0.4,0.2,0.5
						c0.1,0.1,0.1,0.2,0.1,0.4l0.1,0.1l0,0l0.1-0.1c0-0.1,0.1-0.2,0.1-0.4c0.1-0.1,0.1-0.3,0.2-0.5l0.2-0.5l3-7.1L139.5,56.6
						L139.5,56.6L139.5,56.6z"/>
				</g>
				<g>
					<polygon class="st0" points="147.6,65.4 147.6,66.5 140.9,66.5 140.9,56.6 147.5,56.6 147.5,57.7 142.1,57.7 142.1,60.7 
						146.4,60.7 146.4,61.8 142.1,61.8 142.1,65.4 					"/>
				</g>
				<g>
					<path class="st0" d="M155,66.5l-2.3-3.7c-0.1,0-0.1,0-0.2,0h-0.2h-1.8v3.7h-1.2v-9.9h3c1.2,0,2.1,0.3,2.7,0.8
						c0.6,0.6,1,1.3,1,2.3c0,0.7-0.2,1.3-0.5,1.8c-0.4,0.5-0.8,0.8-1.5,1.1l2.4,3.9H155z M152.4,61.8L152.4,61.8
						c0.8,0,1.4-0.2,1.8-0.6c0.4-0.4,0.6-0.9,0.6-1.5c0-0.6-0.2-1.1-0.6-1.5c-0.4-0.4-1-0.6-1.8-0.6h-2v4.1L152.4,61.8z"/>
				</g>
				<g>
					<path class="st0" d="M163.4,59.3l-0.1,0.1c-0.1-0.3-0.1-0.6-0.3-0.8c-0.1-0.2-0.3-0.4-0.6-0.6c-0.2-0.2-0.5-0.3-0.7-0.4
						s-0.6-0.1-0.9-0.1c-0.6,0-1.2,0.1-1.6,0.4c-0.4,0.3-0.6,0.7-0.6,1.2c0,0.3,0.1,0.5,0.2,0.7c0.1,0.2,0.4,0.4,0.6,0.5
						c0.2,0.1,0.5,0.2,0.8,0.4c0.3,0.1,0.6,0.2,1,0.3c0.4,0.1,0.7,0.2,1.1,0.4c0.4,0.1,0.7,0.3,1.1,0.6c0.3,0.2,0.6,0.5,0.8,0.8
						c0.2,0.3,0.3,0.7,0.3,1.2c0,0.4-0.1,0.8-0.2,1.1c-0.2,0.4-0.4,0.6-0.7,0.9c-0.3,0.2-0.7,0.5-1.1,0.6c-0.4,0.1-0.9,0.2-1.5,0.2
						c-0.5,0-1-0.1-1.4-0.2c-0.4-0.1-0.8-0.4-1.1-0.6s-0.6-0.6-0.8-0.9c-0.2-0.4-0.4-0.7-0.4-1.1l1.1-0.3c0,0.3,0.1,0.6,0.2,0.8
						c0.1,0.3,0.3,0.5,0.5,0.7s0.5,0.4,0.8,0.5c0.3,0.1,0.7,0.2,1.1,0.2c0.7,0,1.3-0.2,1.7-0.5c0.4-0.4,0.6-0.8,0.6-1.3
						c0-0.4-0.1-0.6-0.3-0.9c-0.2-0.2-0.4-0.4-0.7-0.6c-0.3-0.1-0.6-0.3-1-0.4c-0.4-0.1-0.7-0.2-1.1-0.3c-0.3-0.1-0.6-0.2-0.9-0.3
						c-0.3-0.1-0.6-0.3-0.9-0.5c-0.3-0.2-0.5-0.4-0.7-0.7c-0.2-0.3-0.3-0.6-0.3-1.1c0-0.4,0.1-0.7,0.2-1.1c0.2-0.3,0.4-0.6,0.7-0.8
						c0.3-0.2,0.7-0.4,1.1-0.6c0.4-0.1,0.9-0.2,1.4-0.2c0.5,0,0.9,0.1,1.3,0.2c0.4,0.1,0.7,0.3,1.1,0.5c0.3,0.2,0.6,0.5,0.8,0.8
						c0.2,0.3,0.4,0.7,0.4,1.1L163.4,59.3z"/>
				</g>
				<g>
					<rect x="166.5" y="56.6" class="st0" width="1.2" height="9.9"/>
				</g>
				<g>
					<polygon class="st0" points="176.8,56.6 176.8,57.7 173.5,57.7 173.5,66.5 172.4,66.5 172.4,57.7 169.1,57.7 169.1,56.6 					
						"/>
				</g>
				<g>
					<path class="st0" d="M186.5,56.6l-3.9,5v4.8h-1.1v-4.8l-3.8-5h1.3l2.5,3.2c0.1,0.1,0.1,0.2,0.2,0.2c0.1,0.1,0.1,0.2,0.2,0.2
						c0.1,0.1,0.1,0.1,0.1,0.2l0.1,0.1l0,0l0.1-0.1c0-0.1,0.1-0.1,0.1-0.2c0.1-0.1,0.1-0.1,0.2-0.2c0.1-0.1,0.1-0.2,0.2-0.2l2.5-3.2
						L186.5,56.6L186.5,56.6z"/>
				</g>
				<g>
					<path class="st0" d="M190.8,61.6c0-0.7,0.1-1.4,0.4-2.1c0.3-0.6,0.6-1.2,1.1-1.6c0.5-0.5,1-0.8,1.6-1.1c0.6-0.2,1.3-0.4,2-0.4
						c0.7,0,1.4,0.1,2,0.4c0.6,0.2,1.2,0.6,1.6,1.1c0.5,0.5,0.8,1,1.1,1.6c0.3,0.6,0.4,1.3,0.4,2.1s-0.1,1.4-0.4,2.1
						c-0.3,0.6-0.6,1.2-1.1,1.6c-0.5,0.5-1,0.8-1.6,1.1c-0.6,0.2-1.3,0.4-2,0.4c-0.7,0-1.4-0.1-2-0.4c-0.6-0.2-1.2-0.6-1.6-1.1
						c-0.5-0.5-0.8-1-1.1-1.6C191,63,190.9,62.3,190.8,61.6L190.8,61.6z M192,61.6c0,0.6,0.1,1.1,0.3,1.6c0.2,0.5,0.5,0.9,0.8,1.3
						c0.4,0.4,0.8,0.6,1.3,0.8c0.5,0.2,1,0.3,1.6,0.3c0.6,0,1.1-0.1,1.6-0.3c0.5-0.2,0.9-0.5,1.3-0.8c0.4-0.4,0.6-0.8,0.8-1.3
						c0.2-0.5,0.3-1.1,0.3-1.6c0-0.6-0.1-1.2-0.3-1.7c-0.2-0.5-0.5-0.9-0.8-1.3c-0.4-0.4-0.8-0.6-1.2-0.8c-0.5-0.2-1-0.3-1.6-0.3
						c-0.6,0-1.1,0.1-1.6,0.3c-0.5,0.2-0.9,0.5-1.2,0.8s-0.6,0.8-0.8,1.3c-0.2,0.5-0.3,1.1-0.3,1.7H192z"/>
				</g>
				<g>
					<polygon class="st0" points="204.2,57.7 204.2,61 208.3,61 208.3,62 204.2,62 204.2,66.5 203,66.5 203,56.6 209.4,56.6 
						209.4,57.7 					"/>
				</g>
				<g>
					<path class="st0" d="M112.8,78.5h-4.9l-1.1,2.6h-1.2l4.3-9.9h1.1l4.3,9.9H114L112.8,78.5z M112.4,77.5l-1.6-3.7
						c-0.1-0.1-0.1-0.2-0.2-0.4c-0.1-0.1-0.1-0.3-0.1-0.4c0-0.1-0.1-0.2-0.1-0.3l0-0.1l0,0l0,0.1c0,0.1-0.1,0.2-0.1,0.3
						c0,0.1-0.1,0.2-0.1,0.4c-0.1,0.1-0.1,0.3-0.2,0.4l-1.6,3.7H112.4z"/>
				</g>
				<g>
					<path class="st0" d="M119.6,71.2L119.6,71.2c1.1,0,2,0.3,2.7,0.8c0.6,0.6,1,1.3,1,2.3s-0.3,1.8-1,2.3c-0.6,0.6-1.6,0.8-2.7,0.8
						h-1.9v3.6h-1.2v-9.9H119.6z M119.6,76.4L119.6,76.4c0.8,0,1.4-0.2,1.9-0.6c0.4-0.4,0.6-0.9,0.6-1.5c0-0.7-0.2-1.2-0.7-1.5
						c-0.5-0.4-1.1-0.5-1.8-0.5h-1.8v4.1L119.6,76.4L119.6,76.4z"/>
				</g>
				<g>
					<path class="st0" d="M127.8,71.2L127.8,71.2c1.1,0,2,0.3,2.7,0.8c0.6,0.6,1,1.3,1,2.3s-0.3,1.8-1,2.3c-0.6,0.6-1.6,0.8-2.7,0.8
						H126v3.6h-1.2v-9.9H127.8z M127.8,76.4L127.8,76.4c0.8,0,1.4-0.2,1.9-0.6c0.4-0.4,0.6-0.9,0.6-1.5c0-0.7-0.2-1.2-0.7-1.5
						c-0.5-0.4-1.1-0.5-1.8-0.5H126v4.1L127.8,76.4L127.8,76.4z"/>
				</g>
				<g>
					<polygon class="st0" points="139.4,80 139.4,81.1 133,81.1 133,71.2 134.1,71.2 134.1,80 					"/>
				</g>
				<g>
					<rect x="140.8" y="71.2" class="st0" width="1.2" height="9.9"/>
				</g>
				<g>
					<polygon class="st0" points="151.1,80 151.1,81.1 144.5,81.1 144.4,71.2 151,71.2 151,72.3 145.6,72.3 145.6,75.3 150,75.3 
						150,76.4 145.6,76.4 145.6,80 					"/>
				</g>
				<g>
					<path class="st0" d="M156.9,71.2L156.9,71.2c0.7,0,1.3,0.2,1.9,0.4c0.6,0.2,1.2,0.6,1.6,1c0.5,0.4,0.8,1,1.1,1.6
						c0.3,0.6,0.4,1.3,0.4,2c0,0.7-0.1,1.4-0.4,2c-0.2,0.6-0.6,1.1-1.1,1.5c-0.5,0.4-1,0.7-1.6,1c-0.6,0.2-1.3,0.4-1.9,0.4h-4.2
						v-9.9L156.9,71.2z M157.1,80L157.1,80c0.5,0,1-0.1,1.4-0.2c0.5-0.2,0.9-0.4,1.2-0.7c0.4-0.3,0.6-0.7,0.8-1.2
						c0.2-0.5,0.3-1,0.3-1.6c0-0.6-0.1-1.1-0.3-1.6c-0.2-0.5-0.5-0.9-0.8-1.2c-0.4-0.4-0.8-0.6-1.2-0.8c-0.5-0.2-1-0.3-1.5-0.3h-3
						V80L157.1,80z"/>
				</g>
				<g>
					<path class="st0" d="M172.8,73.9l-0.1,0.1c-0.1-0.3-0.1-0.6-0.3-0.8c-0.1-0.2-0.3-0.4-0.6-0.6c-0.2-0.2-0.5-0.3-0.7-0.4
						c-0.3-0.1-0.6-0.1-0.9-0.1c-0.6,0-1.2,0.1-1.6,0.4c-0.4,0.3-0.6,0.7-0.6,1.2c0,0.3,0.1,0.5,0.2,0.7c0.1,0.2,0.4,0.4,0.6,0.5
						c0.2,0.1,0.5,0.2,0.8,0.4c0.3,0.1,0.6,0.2,1,0.3c0.4,0.1,0.7,0.2,1.1,0.4c0.4,0.1,0.7,0.3,1.1,0.6c0.3,0.2,0.6,0.5,0.8,0.8
						c0.2,0.3,0.3,0.7,0.3,1.2c0,0.4-0.1,0.8-0.2,1.1c-0.2,0.4-0.4,0.6-0.7,0.9c-0.3,0.2-0.7,0.5-1.1,0.6c-0.4,0.1-0.9,0.2-1.5,0.2
						c-0.5,0-1-0.1-1.4-0.2c-0.4-0.1-0.8-0.4-1.1-0.6s-0.6-0.6-0.8-0.9c-0.2-0.4-0.4-0.7-0.4-1.1l1.1-0.3c0,0.3,0.1,0.6,0.2,0.8
						c0.1,0.3,0.3,0.5,0.5,0.7c0.2,0.2,0.5,0.4,0.8,0.5c0.3,0.1,0.7,0.2,1.1,0.2c0.7,0,1.3-0.2,1.7-0.5c0.4-0.4,0.6-0.8,0.6-1.3
						c0-0.4-0.1-0.6-0.3-0.9c-0.2-0.2-0.4-0.4-0.7-0.6c-0.3-0.1-0.6-0.3-1-0.4c-0.4-0.1-0.7-0.2-1.1-0.3c-0.3-0.1-0.6-0.2-0.9-0.3
						c-0.3-0.1-0.6-0.3-0.9-0.5c-0.3-0.2-0.5-0.4-0.7-0.7c-0.2-0.3-0.3-0.6-0.3-1.1c0-0.4,0.1-0.7,0.2-1.1c0.2-0.3,0.4-0.6,0.7-0.8
						c0.3-0.2,0.7-0.4,1.1-0.6c0.4-0.1,0.9-0.2,1.4-0.2c0.5,0,0.9,0.1,1.3,0.2c0.4,0.1,0.7,0.3,1.1,0.5s0.6,0.5,0.8,0.8
						c0.2,0.3,0.4,0.7,0.4,1.1L172.8,73.9z"/>
				</g>
				<g>
					<path class="st0" d="M183.6,73.9L183.6,73.9c-0.4-0.6-0.9-1-1.5-1.3c-0.6-0.3-1.2-0.5-1.9-0.5c-0.6,0-1.1,0.1-1.6,0.3
						c-0.5,0.2-0.9,0.5-1.2,0.8c-0.4,0.4-0.6,0.8-0.8,1.3c-0.2,0.5-0.3,1-0.3,1.6s0.1,1.1,0.3,1.6c0.2,0.5,0.5,0.9,0.8,1.3
						c0.4,0.4,0.8,0.6,1.3,0.8c0.5,0.2,1,0.3,1.6,0.3c0.8,0,1.4-0.2,2.1-0.6c0.6-0.4,1.1-0.8,1.4-1.5l1.1,0.3
						c-0.2,0.4-0.5,0.8-0.8,1.2c-0.3,0.4-0.7,0.6-1.1,0.9c-0.4,0.2-0.8,0.5-1.3,0.6c-0.5,0.1-1,0.2-1.5,0.2c-0.7,0-1.4-0.1-2-0.4
						c-0.6-0.2-1.2-0.6-1.6-1.1c-0.5-0.5-0.8-1-1.1-1.6c-0.3-0.6-0.4-1.3-0.4-2.1c0-0.7,0.1-1.4,0.4-2.1c0.3-0.6,0.6-1.2,1.1-1.6
						c0.5-0.5,1-0.8,1.6-1.1c0.6-0.2,1.3-0.4,2-0.4c0.5,0,1,0.1,1.4,0.2c0.5,0.1,0.9,0.3,1.3,0.5c0.4,0.2,0.7,0.5,1.1,0.8
						c0.3,0.3,0.6,0.7,0.8,1.1L183.6,73.9z"/>
				</g>
				<g>
					<rect x="186.6" y="71.2" class="st0" width="1.2" height="9.9"/>
				</g>
				<g>
					<polygon class="st0" points="196.9,80 196.9,81 190.2,81 190.2,71.2 196.7,71.2 196.7,72.3 191.3,72.3 191.3,75.3 195.7,75.3 
						195.7,76.4 191.3,76.4 191.4,80 					"/>
				</g>
				<g>
					<path class="st0" d="M206.7,71.2V81h-1.1l-4.4-5.9c-0.2-0.3-0.4-0.6-0.6-0.8s-0.4-0.5-0.5-0.7c-0.1-0.2-0.2-0.3-0.3-0.4
						l-0.1-0.2l0,0v0.2c0,0.1,0,0.4,0,0.6v0.9v1.1V81h-1.2v-9.9h1.1l4.4,5.9c0.2,0.2,0.4,0.5,0.5,0.7s0.3,0.5,0.5,0.6
						c0.1,0.2,0.2,0.4,0.4,0.5l0.1,0.2l0,0v-0.2v-0.6v-0.9c0-0.3,0-0.7,0-1v-5.2H206.7z"/>
				</g>
				<g>
					<path class="st0" d="M217,73.9L217,73.9c-0.4-0.6-0.9-1-1.5-1.3c-0.6-0.3-1.2-0.5-1.9-0.5c-0.6,0-1.1,0.1-1.6,0.3
						c-0.5,0.2-0.9,0.5-1.2,0.8c-0.4,0.4-0.6,0.8-0.8,1.3c-0.2,0.5-0.3,1-0.3,1.6s0.1,1.1,0.3,1.6c0.2,0.5,0.5,0.9,0.8,1.3
						c0.4,0.4,0.8,0.6,1.3,0.8c0.5,0.2,1,0.3,1.6,0.3c0.8,0,1.4-0.2,2.1-0.6c0.6-0.4,1.1-0.8,1.4-1.5l1.1,0.3
						c-0.2,0.4-0.5,0.8-0.8,1.2c-0.3,0.4-0.7,0.6-1.1,0.9c-0.4,0.2-0.8,0.5-1.3,0.6c-0.5,0.1-1,0.2-1.5,0.2c-0.7,0-1.4-0.1-2-0.4
						c-0.6-0.2-1.2-0.6-1.6-1.1s-0.8-1-1.1-1.6c-0.3-0.6-0.4-1.3-0.4-2.1c0-0.7,0.1-1.4,0.4-2.1c0.3-0.6,0.6-1.2,1.1-1.6
						c0.5-0.5,1-0.8,1.6-1.1c0.6-0.2,1.3-0.4,2-0.4c0.5,0,1,0.1,1.4,0.2c0.5,0.1,0.9,0.3,1.3,0.5c0.4,0.2,0.7,0.5,1.1,0.8
						c0.3,0.3,0.6,0.7,0.8,1.1L217,73.9z"/>
				</g>
				<g>
					<polygon class="st0" points="226.5,80 226.5,81 219.8,81 219.8,71.2 226.4,71.2 226.4,72.3 221,72.3 221,75.3 225.4,75.3 
						225.4,76.4 221,76.4 221,80 					"/>
				</g>
				<g>
					<path class="st0" d="M233.6,73.9l-0.1,0.1c-0.1-0.3-0.1-0.6-0.3-0.8c-0.1-0.2-0.3-0.4-0.6-0.6c-0.2-0.2-0.5-0.3-0.7-0.4
						c-0.3-0.1-0.6-0.1-0.9-0.1c-0.6,0-1.2,0.1-1.6,0.4c-0.4,0.3-0.6,0.7-0.6,1.2c0,0.3,0.1,0.5,0.2,0.7c0.1,0.2,0.4,0.4,0.6,0.5
						c0.2,0.1,0.5,0.2,0.8,0.4c0.3,0.1,0.6,0.2,1,0.3c0.4,0.1,0.7,0.2,1.1,0.4c0.4,0.1,0.7,0.3,1.1,0.6c0.3,0.2,0.6,0.5,0.8,0.8
						c0.2,0.3,0.3,0.7,0.3,1.2c0,0.4-0.1,0.8-0.2,1.1c-0.2,0.4-0.4,0.6-0.7,0.9c-0.3,0.2-0.7,0.5-1.1,0.6c-0.4,0.1-0.9,0.2-1.5,0.2
						c-0.5,0-1-0.1-1.4-0.2c-0.4-0.1-0.8-0.4-1.1-0.6c-0.3-0.2-0.6-0.6-0.8-0.9c-0.2-0.4-0.4-0.7-0.4-1.1l1.1-0.3
						c0,0.3,0.1,0.6,0.2,0.8c0.1,0.3,0.3,0.5,0.5,0.7s0.5,0.4,0.8,0.5c0.3,0.1,0.7,0.2,1.1,0.2c0.7,0,1.3-0.2,1.7-0.5
						c0.4-0.4,0.6-0.8,0.6-1.3c0-0.4-0.1-0.6-0.3-0.9c-0.2-0.2-0.4-0.4-0.7-0.6c-0.3-0.1-0.6-0.3-1-0.4c-0.4-0.1-0.7-0.2-1.1-0.3
						c-0.3-0.1-0.6-0.2-0.9-0.3c-0.3-0.1-0.6-0.3-0.9-0.5c-0.3-0.2-0.5-0.4-0.7-0.7c-0.2-0.3-0.3-0.6-0.3-1.1c0-0.4,0.1-0.7,0.2-1.1
						c0.2-0.3,0.4-0.6,0.7-0.8c0.3-0.2,0.7-0.4,1.1-0.6c0.4-0.1,0.9-0.2,1.4-0.2c0.5,0,0.9,0.1,1.3,0.2c0.4,0.1,0.7,0.3,1.1,0.5
						s0.6,0.5,0.8,0.8c0.2,0.3,0.4,0.7,0.4,1.1L233.6,73.9z"/>
				</g>
			</g>
		</g>
	</g>
</g>
</svg>
